<?xml version="1.0"?>
<svg version="1.1" xmlns="http://www.w3.org/2000/svg" width="400px" height="200px" style=""><path fill="#368cc9" d="M16.0380859375,135.1123046875q0-10.8076171875,0.97119140625-21.64013671875t4.05908203125-21.34130859375q0.896484375-3.1376953125,2.3408203125-6.20068359375t3.5361328125-5.45361328125t4.98046875-3.884765625t6.873046875-1.494140625l1.0458984375,0.099609375q4.283203125,0.59765625,6.3251953125,3.46142578125t2.0419921875,7.14697265625q0,1.1455078125-0.27392578125,2.86376953125t-0.87158203125,3.31201171875t-1.61865234375,2.71435546875t-2.56494140625,1.12060546875q-0.697265625-0.099609375-1.27001953125-0.2490234375t-1.07080078125-0.6474609375q0.796875-1.7431640625,1.41943359375-3.6357421875t0.62255859375-4.3330078125q0-0.896484375-0.1494140625-2.291015625t-0.57275390625-2.76416015625t-1.12060546875-2.390625t-1.9423828125-1.02099609375q-3.1376953125,0-5.279296875,3.51123046875t-3.5859375,8.96484375t-2.1416015625,12.052734375t-1.07080078125,12.75t-0.42333984375,11.1064453125t-0.0498046875,6.99755859375q0,2.390625-0.0498046875,5.279296875l0,0.6474609375q0.0498046875,2.5400390625,0.3486328125,4.8310546875q0.3984375,2.58984375,1.5439453125,4.482421875t3.5859375,2.19140625q0.7470703125,0.099609375,1.4443359375,0.099609375q2.888671875,0,5.2294921875-1.6435546875q2.888671875-2.0419921875,5.1298828125-5.30419921875t3.984375-7.171875t3.21240234375-7.39599609375t2.86376953125-5.77734375t2.888671875-2.291015625q0.498046875,0,1.494140625,0.19921875t0.99609375,0.9462890625q0,0.19921875-0.099609375,0.5478515625t-0.2490234375,0.5478515625q-1.3447265625,5.279296875-3.41162109375,10.95703125t-5.279296875,10.33447265625t-7.869140625,7.59521484375t-11.18115234375,2.9384765625q-4.681640625,0-7.59521484375-1.76806640625t-4.482421875-4.7314453125t-2.1416015625-6.69873046875t-0.57275390625-7.5703125z M68.117353515625,133.369140625q0-2.8388671875,0.72216796875-5.85205078125t2.291015625-5.4287109375t3.95947265625-3.9345703125t5.77734375-1.51904296875q2.5400390625,0,5.35400390625,0.87158203125t5.15478515625,2.490234375t3.81005859375,3.95947265625t1.46923828125,5.2294921875q0,3.486328125-1.27001953125,6.6240234375t-3.56103515625,5.60302734375t-5.35400390625,3.884765625t-6.64892578125,1.41943359375q-2.9384765625,0-5.1298828125-1.07080078125t-3.66064453125-2.86376953125t-2.19140625-4.2333984375t-0.72216796875-5.1796875z M75.438642578125,133.26953125q0,0.896484375,0.27392578125,2.6396484375t0.82177734375,3.41162109375t1.41943359375,2.888671875t2.11669921875,1.12060546875q2.6396484375-0.298828125,4.35791015625-1.71826171875t2.7890625-3.46142578125t1.494140625-4.4326171875t0.42333984375-4.5322265625q0-2.7392578125-1.07080078125-4.58203125t-3.51123046875-2.98828125q0,0.099609375,0.099609375,0.099609375t0.099609375-0.099609375l-1.2451171875-0.298828125q-0.498046875-0.19921875-1.22021484375-0.4482421875t-1.41943359375-1.095703125q-1.9423828125,0.697265625-3.01318359375,1.79296875t-1.61865234375,2.66455078125t-0.67236328125,3.76025390625t-0.12451171875,5.279296875z M105.85287109375,118.4775390625q0-2.0419921875,0.72216796875-3.4365234375t3.06298828125-1.39453125q0.896484375,0,2.2412109375,0.27392578125t1.5439453125,1.36962890625q0.498046875,2.9384765625,0.5478515625,6.375t0.3486328125,6.474609375q1.1455078125-2.2412109375,2.9384765625-4.8310546875t4.083984375-4.78125t4.98046875-3.6357421875t5.478515625-1.4443359375q0.19921875,0,0.7470703125,0.1494140625t1.02099609375,0.42333984375t0.57275390625,0.62255859375t-0.5478515625,0.6474609375q-0.19921875,0.59765625-0.8466796875,0.72216796875t-1.1455078125,0.12451171875q-0.298828125,0-0.9462890625-0.2490234375q-3.685546875,1.9423828125-6.275390625,5.279296875t-4.2333984375,7.39599609375t-2.390625,8.56640625t-0.7470703125,8.79052734375q0,2.1416015625-0.97119140625,2.58984375t-3.11279296875,0.4482421875q-1.1455078125,0-2.41552734375-0.2490234375t-1.76806640625-1.59375q-0.896484375-2.8388671875-1.46923828125-6.5244140625t-0.87158203125-7.59521484375t-0.42333984375-7.69482421875t-0.12451171875-6.8232421875z M141.24756835938,134.46484375q0-3.486328125,0.77197265625-8.2177734375t2.61474609375-8.96484375t4.85595703125-7.19677734375t7.59521484375-2.96337890625q4.283203125,0,6.4248046875,2.46533203125t2.1416015625,6.64892578125q0,2.7392578125-1.02099609375,6.00146484375t-2.91357421875,6.17578125t-4.482421875,4.85595703125t-5.77734375,1.9423828125l-1.294921875-0.099609375q0,1.3447265625,0.3984375,3.61083984375t1.17041015625,4.50732421875t1.9921875,3.9345703125t2.96337890625,1.693359375q2.5400390625,0,4.880859375-2.0419921875t4.4326171875-4.5322265625t3.884765625-4.5322265625t3.287109375-2.0419921875q0.796875,0,1.6435546875,0.2490234375t0.9462890625,1.39453125q0,0.697265625-0.37353515625,1.1455078125t-0.67236328125,0.99609375q-1.5439453125,2.6396484375-3.36181640625,5.0302734375t-4.10888671875,4.3330078125t-5.00537109375,3.06298828125t-6.00146484375,1.12060546875q-4.283203125,0-7.1220703125-1.51904296875t-4.58203125-4.083984375t-2.51513671875-5.9267578125t-0.77197265625-7.04736328125z M150.16260742188,130.6796875l1.39453125,1.2451171875q0.99609375,0.896484375,1.9921875,0.3984375t1.79296875-1.81787109375t1.46923828125-3.26220703125t1.1953125-3.984375t0.77197265625-3.984375t0.2490234375-3.2373046875l0-1.693359375t-0.1494140625-1.79296875t-0.52294921875-1.41943359375t-1.17041015625-0.72216796875q-0.2490234375-0.0498046875-0.4482421875-0.0498046875q-1.693359375,0-2.888671875,2.1416015625q-1.294921875,2.390625-2.091796875,5.80224609375t-1.1455078125,6.99755859375t-0.4482421875,5.37890625z M182.8678515625,150.103515625q0-1.4443359375,0.12451171875-3.0380859375t0.22412109375-2.98828125l0.298828125-7.470703125q0.498046875-8.96484375,1.22021484375-17.630859375t1.22021484375-17.53125q0.298828125-4.880859375,0.4482421875-9.58740234375t0.4482421875-9.58740234375q-0.19921875-0.3984375-0.19921875-0.5478515625q0-0.697265625,0.52294921875-1.095703125t1.22021484375-0.67236328125t1.46923828125-0.37353515625t1.17041015625-0.099609375l1.1455078125,0q1.5439453125,0.19921875,2.2412109375,0.97119140625t0.896484375,1.8427734375t0.099609375,2.291015625t-0.099609375,2.26611328125q0,7.2216796875-0.3486328125,14.71728515625t-0.796875,15.041015625t-0.82177734375,15.0908203125t-0.37353515625,14.91650390625l0,3.486328125q0,2.3408203125-1.31982421875,3.087890625t-3.66064453125,0.7470703125q-2.0419921875,0-3.5859375-0.896484375t-1.5439453125-2.9384765625z M205.71176757812,81.7216796875q0-3.486328125,1.1953125-4.681640625t3.3369140625-1.1953125q0.59765625,0,1.27001953125,0.099609375t1.27001953125,0.298828125q3.3369140625-0.6474609375,6.3251953125-0.6474609375q4.8310546875,0,8.765625,1.693359375q6.3251953125,2.689453125,10.458984375,7.96875t6.076171875,12.4013671875t1.9423828125,14.5927734375q0,4.18359375-0.57275390625,8.7158203125t-2.21630859375,8.4169921875q-1.4443359375,3.486328125-3.984375,7.29638671875t-5.75244140625,7.2216796875t-6.9228515625,5.9765625t-7.49560546875,3.46142578125l0,0.3984375q0,0.99609375-0.52294921875,1.61865234375t-1.27001953125,0.9462890625t-1.71826171875,0.42333984375t-1.81787109375,0.099609375q-0.498046875,0-1.41943359375-0.099609375t-1.79296875-0.37353515625t-1.46923828125-0.72216796875t-0.59765625-1.2451171875q0-9.064453125-0.47314453125-18.15380859375t-1.07080078125-18.1787109375t-1.07080078125-18.15380859375t-0.47314453125-18.1787109375z M215.12485351562,79.181640625q0.498046875,4.78125,0.6474609375,9.53759765625t0.4482421875,9.53759765625q0.796875,12.3515625,1.8427734375,24.57861328125t1.2451171875,24.57861328125q4.78125-3.1376953125,8.19287109375-7.171875t5.60302734375-8.765625t3.21240234375-9.93603515625t1.02099609375-10.73291015625q0-3.984375-0.697265625-8.765625t-2.390625-9.2138671875t-4.55712890625-8.0185546875t-7.14697265625-5.1298828125q-0.896484375-0.298828125-2.16650390625-0.498046875t-4.05908203125-0.19921875q-0.298828125,0-0.59765625,0.099609375t-0.59765625,0.099609375z M256.49611328125,118.4775390625q0-2.0419921875,0.72216796875-3.4365234375t3.06298828125-1.39453125q0.896484375,0,2.2412109375,0.27392578125t1.5439453125,1.36962890625q0.498046875,2.9384765625,0.5478515625,6.375t0.3486328125,6.474609375q1.1455078125-2.2412109375,2.9384765625-4.8310546875t4.083984375-4.78125t4.98046875-3.6357421875t5.478515625-1.4443359375q0.19921875,0,0.7470703125,0.1494140625t1.02099609375,0.42333984375t0.57275390625,0.62255859375t-0.5478515625,0.6474609375q-0.19921875,0.59765625-0.8466796875,0.72216796875t-1.1455078125,0.12451171875q-0.298828125,0-0.9462890625-0.2490234375q-3.685546875,1.9423828125-6.275390625,5.279296875t-4.2333984375,7.39599609375t-2.390625,8.56640625t-0.7470703125,8.79052734375q0,2.1416015625-0.97119140625,2.58984375t-3.11279296875,0.4482421875q-1.1455078125,0-2.41552734375-0.2490234375t-1.76806640625-1.59375q-0.896484375-2.8388671875-1.46923828125-6.5244140625t-0.87158203125-7.59521484375t-0.42333984375-7.69482421875t-0.12451171875-6.8232421875z M291.89081054687,132.4228515625q0-3.38671875,0.92138671875-6.5244140625t2.76416015625-5.60302734375t4.60693359375-3.9345703125t6.39990234375-1.46923828125q2.2412109375,0,4.95556640625,0.67236328125t5.10498046875,1.9921875t3.984375,3.36181640625t1.59375,4.681640625q0,1.2451171875-0.42333984375,1.892578125t-1.71826171875,0.6474609375l-0.5478515625-0.099609375q1.4443359375,3.884765625,2.490234375,7.96875t2.0419921875,8.16796875q0.3984375,0.796875,0.59765625,1.41943359375t0.19921875,1.22021484375q0,0.796875-0.4482421875,1.31982421875t-1.17041015625,0.77197265625t-1.494140625,0.3486328125t-1.36962890625,0.099609375q-2.1416015625,0-3.21240234375-0.7470703125t-1.5439453125-2.0419921875t-0.57275390625-2.91357421875t-0.3984375-3.26220703125q-0.59765625,1.9423828125-1.56884765625,3.78515625t-2.291015625,3.31201171875t-3.11279296875,2.3408203125t-4.0341796875,0.87158203125q-3.287109375,0-5.5283203125-1.892578125t-3.61083984375-4.65673828125t-1.9921875-5.90185546875t-0.62255859375-5.8271484375z M298.96307617187,131.7255859375q0,1.8427734375,0.2490234375,3.884765625t0.82177734375,4.0341796875t1.46923828125,3.76025390625t2.2412109375,3.11279296875q2.4404296875-2.6396484375,3.61083984375-6.4248046875t2.091796875-7.29638671875t2.091796875-6.0263671875t3.61083984375-2.51513671875q1.5439453125,0,2.58984375,0.5478515625q-0.498046875-1.2451171875-1.6435546875-2.41552734375t-2.56494140625-2.1416015625t-2.9384765625-1.59375t-2.86376953125-0.62255859375q-0.3984375,0-0.92138671875,0.12451171875t-0.82177734375,0.02490234375q-2.0419921875,0.59765625-3.36181640625,2.06689453125t-2.1416015625,3.46142578125t-1.17041015625,4.083984375t-0.3486328125,3.9345703125z M335.1546484375,136.4072265625q0-1.8427734375,0.07470703125-5.40380859375t0.52294921875-7.24658203125t1.46923828125-6.673828125t3.06298828125-3.8349609375q0.498046875-0.19921875,1.61865234375-0.3486328125t2.2412109375-0.099609375t1.9921875,0.3984375t0.87158203125,1.294921875q0,0.19921875-0.19921875,0.5478515625t-1.0458984375,1.095703125q-1.5439453125,4.283203125-1.892578125,8.5166015625t-0.3486328125,8.7158203125q0,2.6396484375,0.17431640625,5.279296875t0.57275390625,5.3291015625q0.796875-1.1455078125,1.61865234375-3.4365234375t1.7431640625-5.00537109375t1.892578125-5.50341796875t2.19140625-5.080078125t2.689453125-3.78515625t3.31201171875-1.494140625q2.0419921875,0,3.41162109375,2.56494140625t2.5400390625,5.9267578125t2.19140625,6.8232421875t2.46533203125,5.30419921875q0.697265625-0.697265625,1.12060546875-1.81787109375t0.67236328125-2.41552734375t0.298828125-2.56494140625t0.0498046875-2.16650390625q0-2.2412109375-0.67236328125-4.85595703125t-1.41943359375-4.90576171875t-1.41943359375-3.85986328125t-0.67236328125-1.81787109375q0-0.3984375,0.42333984375-0.6474609375t0.97119140625-0.3984375t1.12060546875-0.19921875t0.87158203125-0.0498046875q1.8427734375,0,3.16259765625,2.0419921875t2.091796875,4.7314453125t1.12060546875,5.45361328125t0.3486328125,4.30810546875q0,1.9423828125-0.298828125,4.1337890625t-1.12060546875,4.05908203125t-2.41552734375,3.11279296875t-4.0341796875,1.2451171875q-2.9384765625,0-4.8310546875-1.6435546875t-3.06298828125-3.984375t-1.8427734375-5.10498046875t-1.27001953125-5.00537109375q-1.1455078125,2.6396484375-2.091796875,6.673828125t-2.390625,7.9189453125t-3.685546875,6.6240234375t-5.8271484375,2.7392578125t-5.10498046875-1.76806640625t-2.41552734375-4.85595703125l0.099609375,0.099609375q-0.59765625-2.2412109375-0.77197265625-4.482421875t-0.17431640625-4.482421875z"/><path fill="#" d="M51.07666015625,101.07666015625q0-0.66650390625,0.042724609375-1.956787109375t0.128173828125-2.691650390625t0.22216796875-2.623291015625t0.39306640625-1.751708984375q0.13671875-0.2734375,0.418701171875-0.367431640625t0.555419921875-0.093994140625q0.1708984375,0,0.572509765625,0.093994140625t0.401611328125,0.367431640625q0,0.42724609375-0.1025390625,1.614990234375t-0.18798828125,2.725830078125t-0.11962890625,3.19580078125l0,0.73486328125q0,1.24755859375,0.08544921875,2.34130859375q0.11962890625,1.4013671875,0.452880859375,2.30712890625t0.999755859375,0.90576171875q0.90576171875,0,1.69189453125-0.538330078125t1.435546875-1.4013671875t1.170654296875-1.93115234375t0.888671875-2.10205078125t0.615234375-1.905517578125t0.350341796875-1.3671875q0.1025390625-0.56396484375,0.179443359375-1.50390625t0.247802734375-1.845703125t0.606689453125-1.572265625t1.273193359375-0.66650390625q0.49560546875,0,0.948486328125,0.1708984375t0.589599609375,0.73486328125q-0.2734375,1.04248046875-0.46142578125,2.896728515625t-0.299072265625,3.887939453125t-0.162353515625,3.939208984375t-0.05126953125,3.101806640625q0,1.3330078125,0.0341796875,3.255615234375t0.11962890625,3.973388671875t0.196533203125,3.990478515625t0.247802734375,3.238525390625q0.13671875,0.2734375,0.13671875,0.63232421875q0,0.42724609375-0.1708984375,0.66650390625t-0.469970703125,0.35888671875t-0.6494140625,0.15380859375t-0.675048828125,0.0341796875q-0.49560546875,0-1.102294921875-0.1708984375t-0.743408203125-0.70068359375q-0.1708984375-0.63232421875-0.281982421875-1.666259765625t-0.162353515625-2.255859375t-0.08544921875-2.554931640625t-0.0341796875-2.554931640625t0.01708984375-2.27294921875t0.01708984375-1.717529296875q0-1.298828125,0.05126953125-2.554931640625t0.11962890625-2.554931640625q-0.42724609375,0.87158203125-0.999755859375,1.768798828125t-1.307373046875,1.632080078125t-1.640625,1.204833984375t-1.96533203125,0.469970703125q-1.3671875,0-2.0849609375-0.73486328125t-1.04248046875-1.820068359375t-0.367431640625-2.30712890625t-0.042724609375-2.213134765625z M68.092504882812,111.4501953125q0-0.97412109375,0.247802734375-2.008056640625t0.7861328125-1.86279296875t1.358642578125-1.35009765625t1.982421875-0.521240234375q0.87158203125,0,1.837158203125,0.299072265625t1.768798828125,0.8544921875t1.307373046875,1.358642578125t0.504150390625,1.79443359375q0,1.1962890625-0.435791015625,2.27294921875t-1.221923828125,1.922607421875t-1.837158203125,1.3330078125t-2.281494140625,0.487060546875q-1.00830078125,0-1.76025390625-0.367431640625t-1.256103515625-0.982666015625t-0.751953125-1.45263671875t-0.247802734375-1.77734375z M70.604711914062,111.416015625q0,0.3076171875,0.093994140625,0.90576171875t0.281982421875,1.170654296875t0.487060546875,0.9912109375t0.726318359375,0.384521484375q0.90576171875-0.1025390625,1.495361328125-0.589599609375t0.95703125-1.187744140625t0.5126953125-1.52099609375t0.145263671875-1.55517578125q0-0.93994140625-0.367431640625-1.572265625t-1.204833984375-1.025390625q0,0.0341796875,0.0341796875,0.0341796875t0.0341796875-0.0341796875l-0.42724609375-0.1025390625q-0.1708984375-0.068359375-0.418701171875-0.15380859375t-0.487060546875-0.3759765625q-0.66650390625,0.2392578125-1.033935546875,0.615234375t-0.555419921875,0.914306640625t-0.230712890625,1.290283203125t-0.042724609375,1.8115234375z M80.340283203125,109.62158203125q0-0.341796875,0.076904296875-0.90576171875t0.179443359375-1.119384765625t0.2392578125-1.033935546875t0.32470703125-0.615234375q0.13671875-0.13671875,0.469970703125-0.2734375t0.70068359375-0.196533203125t0.68359375,0.05126953125t0.384521484375,0.452880859375q-0.2392578125,0.3076171875-0.435791015625,1.051025390625t-0.299072265625,1.649169921875q-0.08544921875,0.76904296875-0.08544921875,1.58935546875l0,0.29052734375q0.01708984375,0.95703125,0.1708984375,1.76025390625t0.469970703125,1.324462890625t0.880126953125,0.521240234375q1.1962890625,0,2.1875-1.102294921875t1.76025390625-2.691650390625t1.35009765625-3.375244140625t0.9912109375-3.118896484375q0.1025390625-0.39306640625,0.487060546875-0.52978515625t0.828857421875-0.093994140625t0.794677734375,0.213623046875t0.418701171875,0.41015625q-0.341796875,2.87109375-0.538330078125,5.7421875t-0.196533203125,5.7763671875q0,0.56396484375,0.05126953125,1.033935546875t-0.05126953125,0.80322265625t-0.452880859375,0.52978515625t-1.119384765625,0.196533203125q-0.1708984375,0-0.435791015625-0.0341796875t-0.546875-0.111083984375t-0.478515625-0.230712890625t-0.196533203125-0.35888671875q0-1.2646484375,0.093994140625-2.59765625t0.264892578125-2.58056640625q-0.46142578125,0.66650390625-1.016845703125,1.324462890625t-1.221923828125,1.187744140625t-1.435546875,0.845947265625t-1.65771484375,0.316162109375q-1.2646484375,0-1.990966796875-0.59814453125t-1.09375-1.495361328125t-0.46142578125-1.956787109375t-0.093994140625-2.05078125z M96.416186523437,106.34033203125q0-0.70068359375,0.247802734375-1.17919921875t1.051025390625-0.478515625q0.3076171875,0,0.76904296875,0.093994140625t0.52978515625,0.469970703125q0.1708984375,1.00830078125,0.18798828125,2.1875t0.11962890625,2.2216796875q0.39306640625-0.76904296875,1.00830078125-1.65771484375t1.4013671875-1.640625t1.708984375-1.24755859375t1.8798828125-0.49560546875q0.068359375,0,0.25634765625,0.05126953125t0.350341796875,0.145263671875t0.196533203125,0.213623046875t-0.18798828125,0.22216796875q-0.068359375,0.205078125-0.29052734375,0.247802734375t-0.39306640625,0.042724609375q-0.1025390625,0-0.32470703125-0.08544921875q-1.2646484375,0.66650390625-2.1533203125,1.8115234375t-1.45263671875,2.537841796875t-0.8203125,2.939453125t-0.25634765625,3.016357421875q0,0.73486328125-0.333251953125,0.888671875t-1.068115234375,0.15380859375q-0.39306640625,0-0.828857421875-0.08544921875t-0.606689453125-0.546875q-0.3076171875-0.97412109375-0.504150390625-2.23876953125t-0.299072265625-2.606201171875t-0.145263671875-2.640380859375t-0.042724609375-2.34130859375z M115.22082519531,93.72802734375q0-1.1962890625,0.41015625-1.6064453125t1.14501953125-0.41015625q0.205078125,0,0.435791015625,0.0341796875t0.435791015625,0.1025390625q1.14501953125-0.22216796875,2.17041015625-0.22216796875q1.65771484375,0,3.0078125,0.5810546875q2.17041015625,0.9228515625,3.5888671875,2.734375t2.0849609375,4.25537109375t0.66650390625,5.00732421875q0,1.435546875-0.196533203125,2.99072265625t-0.760498046875,2.88818359375q-0.49560546875,1.1962890625-1.3671875,2.503662109375t-1.973876953125,2.47802734375t-2.37548828125,2.05078125t-2.572021484375,1.187744140625l0,0.13671875q0,0.341796875-0.179443359375,0.555419921875t-0.435791015625,0.32470703125t-0.589599609375,0.145263671875t-0.623779296875,0.0341796875q-0.1708984375,0-0.487060546875-0.0341796875t-0.615234375-0.128173828125t-0.504150390625-0.247802734375t-0.205078125-0.42724609375q0-3.1103515625-0.162353515625-6.229248046875t-0.367431640625-6.23779296875t-0.367431640625-6.229248046875t-0.162353515625-6.23779296875z M118.45080566406,92.8564453125q0.1708984375,1.640625,0.22216796875,3.272705078125t0.15380859375,3.272705078125q0.2734375,4.23828125,0.63232421875,8.433837890625t0.42724609375,8.433837890625q1.640625-1.07666015625,2.811279296875-2.4609375t1.922607421875-3.0078125t1.102294921875-3.409423828125t0.350341796875-3.682861328125q0-1.3671875-0.2392578125-3.0078125t-0.8203125-3.16162109375t-1.563720703125-2.75146484375t-2.452392578125-1.76025390625q-0.3076171875-0.1025390625-0.743408203125-0.1708984375t-1.392822265625-0.068359375q-0.1025390625,0-0.205078125,0.0341796875t-0.205078125,0.0341796875z M132.64682617188,111.826171875q0-1.1962890625,0.264892578125-2.81982421875t0.897216796875-3.076171875t1.666259765625-2.469482421875t2.606201171875-1.016845703125q1.4697265625,0,2.20458984375,0.845947265625t0.73486328125,2.281494140625q0,0.93994140625-0.350341796875,2.059326171875t-0.999755859375,2.119140625t-1.5380859375,1.666259765625t-1.982421875,0.66650390625l-0.4443359375-0.0341796875q0,0.46142578125,0.13671875,1.239013671875t0.401611328125,1.546630859375t0.68359375,1.35009765625t1.016845703125,0.5810546875q0.87158203125,0,1.6748046875-0.70068359375t1.52099609375-1.55517578125t1.3330078125-1.55517578125t1.1279296875-0.70068359375q0.2734375,0,0.56396484375,0.08544921875t0.32470703125,0.478515625q0,0.2392578125-0.128173828125,0.39306640625t-0.230712890625,0.341796875q-0.52978515625,0.90576171875-1.153564453125,1.72607421875t-1.409912109375,1.48681640625t-1.717529296875,1.051025390625t-2.059326171875,0.384521484375q-1.4697265625,0-2.44384765625-0.521240234375t-1.572265625-1.4013671875t-0.863037109375-2.03369140625t-0.264892578125-2.418212890625z M135.70590820313,110.52734375l0.478515625,0.42724609375q0.341796875,0.3076171875,0.68359375,0.13671875t0.615234375-0.623779296875t0.504150390625-1.119384765625t0.41015625-1.3671875t0.264892578125-1.3671875t0.08544921875-1.11083984375l0-0.5810546875t-0.05126953125-0.615234375t-0.179443359375-0.487060546875t-0.401611328125-0.247802734375q-0.08544921875-0.01708984375-0.15380859375-0.01708984375q-0.5810546875,0-0.9912109375,0.73486328125q-0.4443359375,0.8203125-0.7177734375,1.990966796875t-0.39306640625,2.401123046875t-0.15380859375,1.845703125z M146.92829589844,106.71630859375q0-0.70068359375,0.41015625-1.204833984375t0.999755859375-0.8203125t1.290283203125-0.469970703125t1.298828125-0.15380859375q0.46142578125,0,1.23046875,0.13671875t1.50390625,0.41015625t1.273193359375,0.7177734375t0.538330078125,1.04248046875q0,0.2734375-0.205078125,0.487060546875t-0.42724609375,0.213623046875q-0.46142578125,0-0.83740234375-0.299072265625t-0.777587890625-0.63232421875t-0.880126953125-0.63232421875t-1.07666015625-0.299072265625t-1.085205078125,0.384521484375t-0.487060546875,1.016845703125q0,1.04248046875,0.73486328125,2.042236328125t1.614990234375,2.10205078125t1.614990234375,2.315673828125t0.73486328125,2.68310546875q0,0.63232421875-0.264892578125,1.068115234375t-0.70068359375,0.709228515625t-0.982666015625,0.418701171875t-1.0595703125,0.145263671875q-0.56396484375,0-1.31591796875-0.264892578125t-1.41845703125-0.70068359375t-1.119384765625-1.016845703125t-0.452880859375-1.21337890625q0-0.3076171875,0.435791015625-0.39306640625t0.640869140625-0.08544921875q0.1025390625,0,0.316162109375,0.068359375t0.418701171875,0.15380859375t0.367431640625,0.18798828125t0.128173828125,0.22216796875q0.1708984375,0.205078125,0.521240234375,0.606689453125t0.70068359375,0.6494140625t0.615234375,0.179443359375t0.264892578125-0.76904296875q0-1.3330078125-0.7177734375-2.452392578125t-1.563720703125-2.1875t-1.563720703125-2.119140625t-0.7177734375-2.247314453125z M158.97099609375,110.71533203125q0-1.572265625,0.367431640625-3.084716796875t0.623779296875-3.016357421875q0.068359375-0.39306640625,0.538330078125-0.487060546875t0.794677734375-0.093994140625q0.56396484375,0,0.90576171875,0.1708984375q0.13671875,0.068359375,0.25634765625,0.15380859375t0.11962890625,0.22216796875q0,1.4697265625-0.350341796875,2.87109375t-0.350341796875,2.9736328125q0,0.52978515625,0.076904296875,0.999755859375t0.145263671875,0.931396484375l0.1025390625,0.49560546875q0,0.13671875,0.01708984375,0.2392578125t0.05126953125,0.2392578125q0,0.3076171875-0.435791015625,0.418701171875t-0.760498046875,0.111083984375q-0.49560546875,0-0.914306640625-0.196533203125t-0.657958984375-0.675048828125l-0.2392578125-0.49560546875q-0.205078125-0.39306640625-0.205078125-0.880126953125t-0.08544921875-0.897216796875z M160.06474609375,100.42724609375l0-0.32470703125q0-0.80322265625,0.401611328125-1.435546875t1.204833984375-0.63232421875q0.1025390625,0,0.196533203125,0.01708984375t0.196533203125,0.01708984375q0.205078125,0.0341796875,0.538330078125,0.162353515625t0.333251953125,0.401611328125l0,0.0341796875q-0.068359375,0.13671875-0.08544921875,0.281982421875t-0.08544921875,0.247802734375l0.0341796875-0.0341796875q-0.205078125,0.52978515625-0.333251953125,0.8544921875t-0.281982421875,0.521240234375t-0.384521484375,0.281982421875t-0.657958984375,0.08544921875q-0.068359375,0-0.2392578125-0.01708984375t-0.367431640625-0.068359375t-0.333251953125-0.13671875t-0.13671875-0.25634765625z M166.43361816406,110.52734375q0-0.93994140625,0.179443359375-2.008056640625t0.615234375-1.956787109375t1.204833984375-1.4697265625t1.96533203125-0.5810546875q0.80322265625,0,1.55517578125,0.264892578125t1.41845703125,0.726318359375q0.205078125-0.341796875,0.6494140625-0.418701171875t0.7861328125-0.076904296875q0.13671875,0,0.384521484375,0.01708984375t0.487060546875,0.1025390625t0.418701171875,0.205078125t0.213623046875,0.341796875q0.13671875,1.1962890625,0.18798828125,2.384033203125t0.15380859375,2.366943359375q0.1708984375,2.20458984375,0.52978515625,4.35791015625t0.35888671875,4.35791015625q0,1.04248046875-0.093994140625,2.255859375t-0.49560546875,2.247314453125t-1.170654296875,1.717529296875t-2.13623046875,0.68359375q-1.23046875,0-1.888427734375-0.435791015625t-1.187744140625-1.461181640625q0.0341796875-0.341796875,0.435791015625-0.452880859375t0.692138671875-0.111083984375q0.2734375,0,0.555419921875,0.05126953125t0.452880859375,0.1708984375l0.42724609375,0.2734375q0.63232421875-1.298828125,0.76904296875-2.8369140625t0.13671875-2.9736328125q0-1.1962890625-0.11962890625-2.366943359375t-0.2392578125-2.349853515625q-1.1962890625,2.17041015625-3.64013671875,2.17041015625q-1.1279296875,0-1.837158203125-0.478515625t-1.09375-1.21337890625t-0.52978515625-1.65771484375t-0.145263671875-1.845703125z M168.53566894531,110.68115234375q0,0.42724609375,0.0341796875,1.102294921875t0.179443359375,1.324462890625t0.418701171875,1.119384765625t0.76904296875,0.469970703125q0.93994140625,0,1.48681640625-0.73486328125t0.863037109375-1.751708984375t0.504150390625-2.10205078125t0.478515625-1.785888671875q-0.0341796875-0.2392578125-0.0341796875-0.469970703125l0-0.469970703125q-0.39306640625-0.73486328125-1.14501953125-1.273193359375t-1.55517578125-0.726318359375q-0.1025390625-0.01708984375-0.18798828125-0.01708984375q-0.478515625,0-0.7861328125,0.56396484375q-0.39306640625,0.68359375-0.615234375,1.632080078125t-0.316162109375,1.871337890625t-0.093994140625,1.24755859375z M181.05688476563,111.2109375l0-0.49560546875q0-0.615234375,0.0341796875-1.162109375q0.0341796875-0.76904296875,0.0341796875-1.2646484375q0-0.2734375,0.0341796875-0.623779296875t0.1708984375-0.555419921875q0.1708984375-0.1708984375,0.401611328125-0.350341796875t0.504150390625-0.179443359375q0.87158203125,0,1.3671875,0.196533203125t0.52978515625,0.811767578125l0.068359375,0.52978515625q0.3076171875-0.73486328125,0.8203125-1.820068359375t1.187744140625-2.06787109375t1.52099609375-1.6748046875t1.785888671875-0.692138671875q0.87158203125,0,1.435546875,0.8203125t0.897216796875,2.093505859375t0.469970703125,2.8369140625t0.18798828125,3.067626953125t0.068359375,2.742919921875t0.11962890625,1.871337890625q0.068359375,0.52978515625,0.230712890625,1.119384765625t0.162353515625,1.085205078125q0,0.13671875-0.196533203125,0.264892578125t-0.418701171875,0.213623046875t-0.452880859375,0.13671875t-0.333251953125,0.05126953125q-0.66650390625,0-0.948486328125-0.999755859375t-0.350341796875-2.503662109375t-0.068359375-3.255615234375t-0.11962890625-3.255615234375t-0.487060546875-2.503662109375t-1.170654296875-1.033935546875q-0.73486328125,0-1.52099609375,0.948486328125t-1.35009765625,2.520751953125q-0.546875,1.572265625-0.751953125,3.57177734375q-0.068359375,0.63232421875-0.068359375,1.2646484375q0,1.38427734375,0.29052734375,2.7685546875q0.0341796875,0.2392578125-0.196533203125,0.35888671875t-0.572509765625,0.18798828125t-0.692138671875,0.08544921875t-0.538330078125,0.01708984375q-0.66650390625,0-1.068115234375-0.469970703125t-0.623779296875-1.204833984375t-0.299072265625-1.649169921875t-0.093994140625-1.802978515625z M196.58591308594,110.71533203125q0-1.572265625,0.367431640625-3.084716796875t0.623779296875-3.016357421875q0.068359375-0.39306640625,0.538330078125-0.487060546875t0.794677734375-0.093994140625q0.56396484375,0,0.90576171875,0.1708984375q0.13671875,0.068359375,0.25634765625,0.15380859375t0.11962890625,0.22216796875q0,1.4697265625-0.350341796875,2.87109375t-0.350341796875,2.9736328125q0,0.52978515625,0.076904296875,0.999755859375t0.145263671875,0.931396484375l0.1025390625,0.49560546875q0,0.13671875,0.01708984375,0.2392578125t0.05126953125,0.2392578125q0,0.3076171875-0.435791015625,0.418701171875t-0.760498046875,0.111083984375q-0.49560546875,0-0.914306640625-0.196533203125t-0.657958984375-0.675048828125l-0.2392578125-0.49560546875q-0.205078125-0.39306640625-0.205078125-0.880126953125t-0.08544921875-0.897216796875z M197.67966308594,100.42724609375l0-0.32470703125q0-0.80322265625,0.401611328125-1.435546875t1.204833984375-0.63232421875q0.1025390625,0,0.196533203125,0.01708984375t0.196533203125,0.01708984375q0.205078125,0.0341796875,0.538330078125,0.162353515625t0.333251953125,0.401611328125l0,0.0341796875q-0.068359375,0.13671875-0.08544921875,0.281982421875t-0.08544921875,0.247802734375l0.0341796875-0.0341796875q-0.205078125,0.52978515625-0.333251953125,0.8544921875t-0.281982421875,0.521240234375t-0.384521484375,0.281982421875t-0.657958984375,0.08544921875q-0.068359375,0-0.2392578125-0.01708984375t-0.367431640625-0.068359375t-0.333251953125-0.13671875t-0.13671875-0.25634765625z M204.065625,111.2109375l0-0.49560546875q0-0.615234375,0.0341796875-1.162109375q0.0341796875-0.76904296875,0.0341796875-1.2646484375q0-0.2734375,0.0341796875-0.623779296875t0.1708984375-0.555419921875q0.1708984375-0.1708984375,0.401611328125-0.350341796875t0.504150390625-0.179443359375q0.87158203125,0,1.3671875,0.196533203125t0.52978515625,0.811767578125l0.068359375,0.52978515625q0.3076171875-0.73486328125,0.8203125-1.820068359375t1.187744140625-2.06787109375t1.52099609375-1.6748046875t1.785888671875-0.692138671875q0.87158203125,0,1.435546875,0.8203125t0.897216796875,2.093505859375t0.469970703125,2.8369140625t0.18798828125,3.067626953125t0.068359375,2.742919921875t0.11962890625,1.871337890625q0.068359375,0.52978515625,0.230712890625,1.119384765625t0.162353515625,1.085205078125q0,0.13671875-0.196533203125,0.264892578125t-0.418701171875,0.213623046875t-0.452880859375,0.13671875t-0.333251953125,0.05126953125q-0.66650390625,0-0.948486328125-0.999755859375t-0.350341796875-2.503662109375t-0.068359375-3.255615234375t-0.11962890625-3.255615234375t-0.487060546875-2.503662109375t-1.170654296875-1.033935546875q-0.73486328125,0-1.52099609375,0.948486328125t-1.35009765625,2.520751953125q-0.546875,1.572265625-0.751953125,3.57177734375q-0.068359375,0.63232421875-0.068359375,1.2646484375q0,1.38427734375,0.29052734375,2.7685546875q0.0341796875,0.2392578125-0.196533203125,0.35888671875t-0.572509765625,0.18798828125t-0.692138671875,0.08544921875t-0.538330078125,0.01708984375q-0.66650390625,0-1.068115234375-0.469970703125t-0.623779296875-1.204833984375t-0.299072265625-1.649169921875t-0.093994140625-1.802978515625z M219.59465332031,110.52734375q0-0.93994140625,0.179443359375-2.008056640625t0.615234375-1.956787109375t1.204833984375-1.4697265625t1.96533203125-0.5810546875q0.80322265625,0,1.55517578125,0.264892578125t1.41845703125,0.726318359375q0.205078125-0.341796875,0.6494140625-0.418701171875t0.7861328125-0.076904296875q0.13671875,0,0.384521484375,0.01708984375t0.487060546875,0.1025390625t0.418701171875,0.205078125t0.213623046875,0.341796875q0.13671875,1.1962890625,0.18798828125,2.384033203125t0.15380859375,2.366943359375q0.1708984375,2.20458984375,0.52978515625,4.35791015625t0.35888671875,4.35791015625q0,1.04248046875-0.093994140625,2.255859375t-0.49560546875,2.247314453125t-1.170654296875,1.717529296875t-2.13623046875,0.68359375q-1.23046875,0-1.888427734375-0.435791015625t-1.187744140625-1.461181640625q0.0341796875-0.341796875,0.435791015625-0.452880859375t0.692138671875-0.111083984375q0.2734375,0,0.555419921875,0.05126953125t0.452880859375,0.1708984375l0.42724609375,0.2734375q0.63232421875-1.298828125,0.76904296875-2.8369140625t0.13671875-2.9736328125q0-1.1962890625-0.11962890625-2.366943359375t-0.2392578125-2.349853515625q-1.1962890625,2.17041015625-3.64013671875,2.17041015625q-1.1279296875,0-1.837158203125-0.478515625t-1.09375-1.21337890625t-0.52978515625-1.65771484375t-0.145263671875-1.845703125z M221.69670410156,110.68115234375q0,0.42724609375,0.0341796875,1.102294921875t0.179443359375,1.324462890625t0.418701171875,1.119384765625t0.76904296875,0.469970703125q0.93994140625,0,1.48681640625-0.73486328125t0.863037109375-1.751708984375t0.504150390625-2.10205078125t0.478515625-1.785888671875q-0.0341796875-0.2392578125-0.0341796875-0.469970703125l0-0.469970703125q-0.39306640625-0.73486328125-1.14501953125-1.273193359375t-1.55517578125-0.726318359375q-0.1025390625-0.01708984375-0.18798828125-0.01708984375q-0.478515625,0-0.7861328125,0.56396484375q-0.39306640625,0.68359375-0.615234375,1.632080078125t-0.316162109375,1.871337890625t-0.093994140625,1.24755859375z M240.86022949219,95.830078125q0-0.80322265625,0.042724609375-1.58935546875t0.145263671875-1.55517578125q0.068359375-0.39306640625,0.606689453125-0.56396484375t0.897216796875-0.1708984375l0.41015625,0.0341796875q0.49560546875,0.068359375,0.999755859375-0.068359375t0.999755859375-0.13671875q1.162109375,0,2.59765625,0.25634765625t2.691650390625,0.87158203125t2.110595703125,1.614990234375t0.8544921875,2.469482421875t-0.888671875,2.742919921875t-2.23876953125,2.23876953125t-2.9052734375,1.512451171875t-2.85400390625,0.546875q0.13671875,3.29833984375,0.384521484375,6.54541015625t0.845947265625,6.494140625l0.0341796875,0.22216796875q0,0.2392578125-0.213623046875,0.39306640625t-0.504150390625,0.247802734375t-0.589599609375,0.128173828125t-0.487060546875,0.0341796875q-0.42724609375,0-1.033935546875-0.162353515625t-0.743408203125-0.640869140625q-0.39306640625-1.50390625-0.615234375-3.306884765625t-0.32470703125-3.768310546875t-0.145263671875-3.956298828125t-0.042724609375-3.887939453125l0-3.84521484375q0-0.63232421875-0.01708984375-1.31591796875t-0.01708984375-1.38427734375z M244.09020996094,93.0615234375q0,2.34130859375,0.05126953125,4.674072265625t0.11962890625,4.674072265625q1.00830078125-0.205078125,2.059326171875-0.726318359375t1.89697265625-1.239013671875t1.3671875-1.632080078125t0.521240234375-1.922607421875q0-0.90576171875-0.452880859375-1.62353515625t-1.170654296875-1.23046875q-0.70068359375-0.49560546875-1.58935546875-0.76904296875q-0.7861328125-0.2392578125-1.5380859375-0.2392578125l-0.18798828125,0z M256.71396484375,111.12548828125q0-1.162109375,0.316162109375-2.23876953125t0.948486328125-1.922607421875t1.580810546875-1.35009765625t2.196044921875-0.504150390625q0.76904296875,0,1.700439453125,0.230712890625t1.751708984375,0.68359375t1.3671875,1.153564453125t0.546875,1.6064453125q0,0.42724609375-0.145263671875,0.6494140625t-0.589599609375,0.22216796875l-0.18798828125-0.0341796875q0.49560546875,1.3330078125,0.8544921875,2.734375t0.70068359375,2.802734375q0.13671875,0.2734375,0.205078125,0.487060546875t0.068359375,0.418701171875q0,0.2734375-0.15380859375,0.452880859375t-0.401611328125,0.264892578125t-0.5126953125,0.11962890625t-0.469970703125,0.0341796875q-0.73486328125,0-1.102294921875-0.25634765625t-0.52978515625-0.70068359375t-0.196533203125-0.999755859375t-0.13671875-1.119384765625q-0.205078125,0.66650390625-0.538330078125,1.298828125t-0.7861328125,1.136474609375t-1.068115234375,0.80322265625t-1.38427734375,0.299072265625q-1.1279296875,0-1.89697265625-0.6494140625t-1.239013671875-1.597900390625t-0.68359375-2.025146484375t-0.213623046875-1.99951171875z M259.14072265625,110.88623046875q0,0.63232421875,0.08544921875,1.3330078125t0.281982421875,1.38427734375t0.504150390625,1.290283203125t0.76904296875,1.068115234375q0.83740234375-0.90576171875,1.239013671875-2.20458984375t0.7177734375-2.503662109375t0.7177734375-2.06787109375t1.239013671875-0.863037109375q0.52978515625,0,0.888671875,0.18798828125q-0.1708984375-0.42724609375-0.56396484375-0.828857421875t-0.880126953125-0.73486328125t-1.00830078125-0.546875t-0.982666015625-0.213623046875q-0.13671875,0-0.316162109375,0.042724609375t-0.281982421875,0.008544921875q-0.70068359375,0.205078125-1.153564453125,0.709228515625t-0.73486328125,1.187744140625t-0.401611328125,1.4013671875t-0.11962890625,1.35009765625z M271.52521972656,106.34033203125q0-0.70068359375,0.247802734375-1.17919921875t1.051025390625-0.478515625q0.3076171875,0,0.76904296875,0.093994140625t0.52978515625,0.469970703125q0.1708984375,1.00830078125,0.18798828125,2.1875t0.11962890625,2.2216796875q0.39306640625-0.76904296875,1.00830078125-1.65771484375t1.4013671875-1.640625t1.708984375-1.24755859375t1.8798828125-0.49560546875q0.068359375,0,0.25634765625,0.05126953125t0.350341796875,0.145263671875t0.196533203125,0.213623046875t-0.18798828125,0.22216796875q-0.068359375,0.205078125-0.29052734375,0.247802734375t-0.39306640625,0.042724609375q-0.1025390625,0-0.32470703125-0.08544921875q-1.2646484375,0.66650390625-2.1533203125,1.8115234375t-1.45263671875,2.537841796875t-0.8203125,2.939453125t-0.25634765625,3.016357421875q0,0.73486328125-0.333251953125,0.888671875t-1.068115234375,0.15380859375q-0.39306640625,0-0.828857421875-0.08544921875t-0.606689453125-0.546875q-0.3076171875-0.97412109375-0.504150390625-2.23876953125t-0.299072265625-2.606201171875t-0.145263671875-2.640380859375t-0.042724609375-2.34130859375z M282.96977539063,100.2734375q0-0.2392578125,0.5126953125-0.41015625t1.162109375-0.281982421875t1.256103515625-0.162353515625t0.828857421875-0.08544921875q0-0.46142578125,0.0341796875-0.931396484375t0.18798828125-0.83740234375t0.487060546875-0.589599609375t0.931396484375-0.22216796875q0.49560546875,0,0.751953125,0.11962890625t0.546875,0.49560546875q0.068359375,0.205078125,0.068359375,0.39306640625l0,0.572509765625t-0.0341796875,0.589599609375q0.63232421875-0.068359375,1.256103515625-0.162353515625t1.256103515625-0.093994140625q0.46142578125,0,0.63232421875,0.01708984375t0.341796875,0.41015625q0.13671875,0.39306640625-0.333251953125,0.59814453125t-1.1279296875,0.3076171875t-1.307373046875,0.15380859375t-0.7861328125,0.05126953125q-0.205078125,2.939453125-0.418701171875,5.82763671875t-0.213623046875,5.86181640625q0,1.3330078125,0.08544921875,2.75146484375t0.478515625,2.68310546875q0.1025390625,0.39306640625,0.341796875,0.73486328125t0.2392578125,0.73486328125q0,0.2392578125-0.18798828125,0.3759765625t-0.452880859375,0.230712890625t-0.52978515625,0.111083984375t-0.435791015625,0.01708984375q-1.07666015625,0-1.640625-0.80322265625t-0.811767578125-1.922607421875t-0.264892578125-2.298583984375t-0.01708984375-1.9140625q0-1.50390625,0.059814453125-3.076171875t0.145263671875-3.1103515625t0.2392578125-3.0078125t0.35888671875-2.734375q-0.59814453125,0.068359375-1.170654296875,0.15380859375t-1.170654296875,0.08544921875q-0.13671875,0-0.367431640625-0.01708984375t-0.435791015625-0.08544921875t-0.350341796875-0.18798828125t-0.145263671875-0.341796875z M296.05495605469,111.2109375l0-0.49560546875q0-0.615234375,0.0341796875-1.162109375q0.0341796875-0.76904296875,0.0341796875-1.2646484375q0-0.2734375,0.0341796875-0.623779296875t0.1708984375-0.555419921875q0.1708984375-0.1708984375,0.401611328125-0.350341796875t0.504150390625-0.179443359375q0.87158203125,0,1.3671875,0.196533203125t0.52978515625,0.811767578125l0.068359375,0.52978515625q0.3076171875-0.73486328125,0.8203125-1.820068359375t1.187744140625-2.06787109375t1.52099609375-1.6748046875t1.785888671875-0.692138671875q0.87158203125,0,1.435546875,0.8203125t0.897216796875,2.093505859375t0.469970703125,2.8369140625t0.18798828125,3.067626953125t0.068359375,2.742919921875t0.11962890625,1.871337890625q0.068359375,0.52978515625,0.230712890625,1.119384765625t0.162353515625,1.085205078125q0,0.13671875-0.196533203125,0.264892578125t-0.418701171875,0.213623046875t-0.452880859375,0.13671875t-0.333251953125,0.05126953125q-0.66650390625,0-0.948486328125-0.999755859375t-0.350341796875-2.503662109375t-0.068359375-3.255615234375t-0.11962890625-3.255615234375t-0.487060546875-2.503662109375t-1.170654296875-1.033935546875q-0.73486328125,0-1.52099609375,0.948486328125t-1.35009765625,2.520751953125q-0.546875,1.572265625-0.751953125,3.57177734375q-0.068359375,0.63232421875-0.068359375,1.2646484375q0,1.38427734375,0.29052734375,2.7685546875q0.0341796875,0.2392578125-0.196533203125,0.35888671875t-0.572509765625,0.18798828125t-0.692138671875,0.08544921875t-0.538330078125,0.01708984375q-0.66650390625,0-1.068115234375-0.469970703125t-0.623779296875-1.204833984375t-0.299072265625-1.649169921875t-0.093994140625-1.802978515625z M311.583984375,111.826171875q0-1.1962890625,0.264892578125-2.81982421875t0.897216796875-3.076171875t1.666259765625-2.469482421875t2.606201171875-1.016845703125q1.4697265625,0,2.20458984375,0.845947265625t0.73486328125,2.281494140625q0,0.93994140625-0.350341796875,2.059326171875t-0.999755859375,2.119140625t-1.5380859375,1.666259765625t-1.982421875,0.66650390625l-0.4443359375-0.0341796875q0,0.46142578125,0.13671875,1.239013671875t0.401611328125,1.546630859375t0.68359375,1.35009765625t1.016845703125,0.5810546875q0.87158203125,0,1.6748046875-0.70068359375t1.52099609375-1.55517578125t1.3330078125-1.55517578125t1.1279296875-0.70068359375q0.2734375,0,0.56396484375,0.08544921875t0.32470703125,0.478515625q0,0.2392578125-0.128173828125,0.39306640625t-0.230712890625,0.341796875q-0.52978515625,0.90576171875-1.153564453125,1.72607421875t-1.409912109375,1.48681640625t-1.717529296875,1.051025390625t-2.059326171875,0.384521484375q-1.4697265625,0-2.44384765625-0.521240234375t-1.572265625-1.4013671875t-0.863037109375-2.03369140625t-0.264892578125-2.418212890625z M314.64306640625,110.52734375l0.478515625,0.42724609375q0.341796875,0.3076171875,0.68359375,0.13671875t0.615234375-0.623779296875t0.504150390625-1.119384765625t0.41015625-1.3671875t0.264892578125-1.3671875t0.08544921875-1.11083984375l0-0.5810546875t-0.05126953125-0.615234375t-0.179443359375-0.487060546875t-0.401611328125-0.247802734375q-0.08544921875-0.01708984375-0.15380859375-0.01708984375q-0.5810546875,0-0.9912109375,0.73486328125q-0.4443359375,0.8203125-0.7177734375,1.990966796875t-0.39306640625,2.401123046875t-0.15380859375,1.845703125z M325.86545410156,106.34033203125q0-0.70068359375,0.247802734375-1.17919921875t1.051025390625-0.478515625q0.3076171875,0,0.76904296875,0.093994140625t0.52978515625,0.469970703125q0.1708984375,1.00830078125,0.18798828125,2.1875t0.11962890625,2.2216796875q0.39306640625-0.76904296875,1.00830078125-1.65771484375t1.4013671875-1.640625t1.708984375-1.24755859375t1.8798828125-0.49560546875q0.068359375,0,0.25634765625,0.05126953125t0.350341796875,0.145263671875t0.196533203125,0.213623046875t-0.18798828125,0.22216796875q-0.068359375,0.205078125-0.29052734375,0.247802734375t-0.39306640625,0.042724609375q-0.1025390625,0-0.32470703125-0.08544921875q-1.2646484375,0.66650390625-2.1533203125,1.8115234375t-1.45263671875,2.537841796875t-0.8203125,2.939453125t-0.25634765625,3.016357421875q0,0.73486328125-0.333251953125,0.888671875t-1.068115234375,0.15380859375q-0.39306640625,0-0.828857421875-0.08544921875t-0.606689453125-0.546875q-0.3076171875-0.97412109375-0.504150390625-2.23876953125t-0.299072265625-2.606201171875t-0.145263671875-2.640380859375t-0.042724609375-2.34130859375z"/></svg>
